<?xml version="1.0"?>
<svg version="1.1" xmlns="http://www.w3.org/2000/svg" width="230" height="47" style="border: dashed 2px #aaa"><path fill="#d4240d" d="M31.352,38.256c0,0.224-0.168,0.364-0.448,0.364l-2.8,0c-0.672,0-0.98-0.224-1.344-0.7l-6.048-7.756l-0.056,0l0,7.756c0,0.504-0.196,0.7-0.672,0.7l-2.24,0c-0.504,0-0.7-0.196-0.7-0.7l0-18.004c0-0.476,0.252-0.672,0.7-0.672l2.24,0c0.448,0,0.672,0.168,0.672,0.672l0,7.924l0.056,0l5.768-8.092c0.252-0.336,0.588-0.504,1.036-0.504l2.24,0c0.28,0,0.448,0.168,0.448,0.364c0,0.112-0.028,0.224-0.112,0.336l-6.44,8.652l7.448,9.156c0.14,0.168,0.252,0.364,0.252,0.504z M42.93,21.008c0,0.448-0.196,0.588-0.588,0.588l-1.596,0l0,14.672l1.512,0c0.392,0,0.588,0.252,0.588,0.588l0,1.204c0,0.336-0.14,0.56-0.504,0.56l-6.664,0c-0.364,0-0.56-0.224-0.56-0.532l0-1.26c0-0.392,0.168-0.56,0.56-0.56l1.484,0l0-14.672l-1.624,0c-0.392,0-0.56-0.196-0.56-0.56l0-1.232c0-0.308,0.168-0.56,0.504-0.56l6.86,0c0.392,0,0.588,0.252,0.588,0.532l0,1.232z M64.616,37.864c0,0.616-0.252,0.756-0.672,0.756l-1.876,0c-0.42,0-0.784-0.196-1.064-0.588l-9.128-12.488l-0.056,0l0,12.348c0,0.532-0.252,0.728-0.728,0.728l-2.016,0c-0.532,0-0.756-0.14-0.756-0.7l0-17.92c0-0.588,0.252-0.756,0.756-0.756l1.82,0c0.448,0,0.672,0.14,0.952,0.532l9.212,12.656l0.056,0l0-12.46c0-0.532,0.252-0.728,0.728-0.728l2.1,0c0.588,0,0.672,0.308,0.672,0.756l0,17.864z M85.574,36.604c0,0.56-0.14,0.784-0.672,1.064c-1.54,0.784-4.144,1.288-6.272,1.288c-5.824,0-9.128-4.032-9.128-9.968c0-5.852,3.78-10.108,9.492-10.108c1.792,0,3.444,0.308,5.124,1.064c0.308,0.14,0.392,0.308,0.392,0.504c0,0.112-0.056,0.224-0.084,0.336l-0.644,1.68c-0.112,0.28-0.224,0.392-0.42,0.392c-0.112,0-0.252-0.056-0.392-0.112c-0.924-0.392-2.52-0.812-3.808-0.812c-1.512,0-2.968,0.56-3.948,1.596c-1.176,1.232-1.848,3.052-1.848,5.348c0,4.34,2.044,7.056,5.404,7.056c1.148,0,2.408-0.168,3.164-0.476l0-5.348l-2.492,0c-0.392,0-0.616-0.14-0.616-0.616l0-1.708c0-0.448,0.224-0.56,0.644-0.56l5.432,0c0.476,0,0.672,0.14,0.672,0.644l0,8.736z M104.572,32.964c0,4.536-3.668,5.656-7.644,5.656l-5.208,0c-0.588,0-0.728-0.224-0.728-0.812l0-17.836c0-0.588,0.252-0.728,0.84-0.728l4.2,0c4.508,0,7.028,1.372,7.028,4.732c0,1.96-1.12,3.668-3.164,4.116l0,0.028c2.66,0.196,4.676,2.016,4.676,4.844z M99.532,24.396c0-1.82-1.428-2.408-3.388-2.408l-1.568,0l0,5.208l1.456,0c2.044,0,3.5-0.532,3.5-2.8z M100.904,32.852c0-1.316-0.588-2.156-1.484-2.604c-0.868-0.42-1.82-0.504-2.996-0.504l-1.848,0l0,6.104l2.072,0c0.98,0,1.932-0.084,2.632-0.364c0.98-0.42,1.624-1.288,1.624-2.632z M125.698,28.82c0,6.328-3.612,10.136-8.624,10.136c-5.348,0-8.428-3.892-8.428-9.968c0-6.02,3.36-10.108,8.624-10.108c5.544,0,8.428,4.2,8.428,9.94z M121.834,28.904c0-4.704-1.652-6.972-4.648-6.972c-2.8,0-4.676,2.604-4.676,6.972c0,4.648,1.708,7,4.676,7c2.772,0,4.648-2.436,4.648-7z M146.852,37.864c0,0.616-0.252,0.756-0.672,0.756l-1.876,0c-0.42,0-0.784-0.196-1.064-0.588l-9.128-12.488l-0.056,0l0,12.348c0,0.532-0.252,0.728-0.728,0.728l-2.016,0c-0.532,0-0.756-0.14-0.756-0.7l0-17.92c0-0.588,0.252-0.756,0.756-0.756l1.82,0c0.448,0,0.672,0.14,0.952,0.532l9.212,12.656l0.056,0l0-12.46c0-0.532,0.252-0.728,0.728-0.728l2.1,0c0.588,0,0.672,0.308,0.672,0.756l0,17.864z M168.706,29.016c0,3.36-1.148,5.88-3.052,7.504c-1.736,1.456-4.172,2.1-6.944,2.1l-5.348,0c-0.56,0-0.812-0.14-0.812-0.784l0-17.752c0-0.588,0.168-0.84,0.868-0.84l4.032,0c3.22,0,5.404,0.364,7.252,1.428c2.52,1.456,4.004,4.2,4.004,8.344z M164.842,28.988c0-2.548-0.756-4.48-2.184-5.544c-1.148-0.84-2.632-1.148-4.424-1.148l-2.044,0l0,13.3l2.156,0c1.932,0,3.556-0.308,4.732-1.484c1.12-1.12,1.764-2.8,1.764-5.124z"/><path fill="#32c7ae" d="M188.14,36.94l0.616-3.08l2.66,0l0,6.44l-14,0l0-2.38l2.1-0.84l0-13.16l-2.1-0.84l0-2.38l8.54-0.14l0,2.52l-2.1,0.84l0,13.02l4.284,0z"/></svg>
